# xmcd CD database file
#
# Track frame offsets:
#	150
#	22910
#	54712
#	84907
#	97145
#	125484
#	145045
#	170766
#	188162
#	202420
#	239815
#
# Disc length: 3614 seconds
#
# Revision: 0
# Processed by: cddbd v1.5.2PL0 Copyright (c) Steve Scherf et al.
# Submitted via: CDex 1.70beta2
#
DISCID=a20e1c0b
DTITLE=Marcus Strickland Trio - Idiosyncrasies
DYEAR=2009
DGENRE=Jazz
TTITLE0=Cuspy's Delight
TTITLE1=Rebirth
TTITLE2=Scatterheart
TTITLE3=The Child
TTITLE4=Middleman
TTITLE5=She's Alive
TTITLE6=Portrait Of Tracy
TTITLE7=Set Free
TTITLE8=You've Got it Bad Girl
TTITLE9=Ne Bi Fe
TTITLE10=Time To Send Someone Away
EXTD=YEAR: 2009
EXTT0=
EXTT1=
EXTT2=
EXTT3=
EXTT4=
EXTT5=
EXTT6=
EXTT7=
EXTT8=
EXTT9=
EXTT10=
PLAYORDER=
